<svg xmlns="http://www.w3.org/2000/svg" viewBox="643.16 895.05 24.52 19.77"><path fill="#1e439b" d="m651.83 897.11.37-.48.57.21-.35-.5.37-.49-.59.17-.32-.49-.02.59-.58.17.57.21m6.11.3.57-.2.37.49-.02-.61.57-.21-.58-.17-.01-.59-.33.49-.58-.17.37.49m2.19 1.07.26.54.1-.6.61-.1-.54-.28.11-.58-.43.42-.53-.28.26.55-.44.43m-4-.98.52-.31.45.4-.13-.6.52-.31-.6-.06-.12-.58-.24.54-.6-.06.45.41m-6.29 1.44.09.6.27-.54.6.1-.44-.43.27-.55-.54.28-.42-.42.1.58-.54.28m13.99 2.6.58.14.04.6.32-.52.6.14-.39-.46.31-.5-.55.22-.39-.46.04.61m3.12 5.27-.31.53-.59-.12.41.44-.29.52.55-.26.42.44-.07-.6.54-.25-.59-.11m-4.7-6.96.15.58.22-.57.61.02-.47-.38.21-.55-.5.33-.47-.38.16.59-.52.33m5.04 9.69.33.51.04-.6.58-.14-.55-.22.04-.61-.4.47-.57-.23.33.51-.39.46m-.68-5.02.49.35-.19.57.49-.36.5.35-.19-.58.48-.35h-.59l-.19-.57-.2.58m-17.97-4.7.21.57.15-.58.61-.02-.51-.34.16-.59-.48.38-.49-.33.2.56-.47.37m17.59 3.1-.07.59.42-.45.55.25-.3-.53.41-.43-.58.12-.3-.53-.08.61-.59.11m-10.68-4.88.46-.4.51.31-.24-.56.45-.41-.6.05-.23-.55-.13.58-.6.06.52.32"/><path fill="#1e439b" d="M658.38 901.764c-.15-.062-.35.233-.51.536-.16.3-.28.677-.14.743.15.076.34-.253.5-.554.16-.303.29-.679.15-.725m-3.34-.029c-.15 0-.32.158-.42.284-.13.154-.34.449-.37.663-.02.112.03.159.09.159.13 0 .32-.241.43-.448.11-.227.16-.354.3-.641 0-.017-.01-.017-.03-.017"/><path fill="#1e439b" d="M662.69 901.825h-.27c-.15.326-.28.602-.41.91-.06.105-.11.282-.08.389.02.061.09.075.16.054.2-.074.34-.249.47-.437 0-.019.11-.006.1.008-.14.281-.45.564-.74.557a.33.33 0 0 1-.24-.128c-.02-.04-.04-.074-.05-.12a.7.7 0 0 1 0-.243c-.16.121-.31.268-.51.309-.09.014-.21-.02-.23-.115a.5.5 0 0 1 .02-.219c.13-.275.24-.523.37-.812 0-.013 0-.061-.02-.068-.02-.018-.08-.018-.13.022-.25.187-.38.427-.48.676q-.12.252-.24.496h-.36c.05-.099.11-.235.15-.341q0-.01 0 0c-.15.145-.34.312-.52.361-.08.02-.15-.006-.19-.075a.28.28 0 0 1-.02-.255c0-.004 0-.004-.01 0-.13.135-.26.255-.44.315-.2.063-.39-.079-.26-.374.04-.08.14-.302.25-.568a.47.47 0 0 1-.27.019v.006c-.08.375-.31.716-.65.878-.16.081-.35.102-.52-.012-.08-.053-.13-.183-.13-.295-.18.173-.37.394-.64.355-.04-.009-.07-.043-.09-.08-.06-.102-.03-.21.01-.297.13-.266.23-.516.36-.816.02-.043-.04-.073-.08-.053-.12.061-.2.12-.27.228-.04.061-.08.127-.11.191-.12.256-.24.524-.35.784h-.36c.16-.366.31-.722.47-1.084.02-.032.01-.081-.01-.093-.03-.016-.09.012-.13.034a.8.8 0 0 0-.22.241c-.06.1-.11.2-.16.31l-.27.592h-.35c.03-.079.1-.235.14-.312 0-.007-.01-.014-.01-.007-.19.16-.44.368-.62.334-.06-.007-.11-.06-.13-.113a.4.4 0 0 1 .01-.187c0-.009-.01-.009-.02 0-.15.146-.29.268-.48.314a.235.235 0 0 1-.26-.127c-.05-.094-.06-.242.02-.41.05-.108.1-.221.17-.314a.4.4 0 0 1-.18.02.18.18 0 0 1-.11-.076c-.03-.03-.04-.091-.04-.131.01-.007-.01-.007-.03 0a.8.8 0 0 0-.2.301l-.31.696h-.36l.13-.296c0-.004 0-.011-.01-.004-.19.166-.41.355-.59.32a.15.15 0 0 1-.12-.113.4.4 0 0 1 0-.189h-.02c-.14.148-.29.268-.48.309-.11.034-.21-.032-.25-.126a.56.56 0 0 1 .02-.404c.13-.363.39-.622.74-.818.22-.126.56-.165.8-.04-.16.376-.29.644-.44.999-.01.034-.03.093.01.114.03.013.06.013.08 0 .19-.093.36-.322.5-.583l.24-.533h.34l-.09.199c-.01.012-.01.019 0 .012.11-.08.22-.199.36-.275.05-.024.18-.024.16.064 0 .077-.06.137-.1.211-.02.049-.04.109-.03.14.01.035.05.056.1.016.06-.034.1-.06.15-.101.08-.083.19-.16.31-.223.24-.113.57-.185.81-.031-.17.374-.29.656-.45 1.011-.03.059-.01.079.01.093s.06.02.12-.009c.13-.057.36-.317.46-.521.08-.189.16-.375.26-.586h.35l-.1.205.01.006c.1-.085.34-.281.52-.24.1.021.15.14.14.228.12-.082.24-.182.4-.223.25-.059.34.108.27.269-.1.223-.29.656-.39.88-.02.023-.02.072 0 .084.02.021.07 0 .09-.012.12-.102.19-.168.28-.301.03-.236.16-.45.33-.63.19-.208.48-.368.77-.274.09.033.16.134.19.234.01.053.03.081.03.141.14.107.34-.07.42-.201.02-.055.05-.113.06-.154.08.005.25 0 .35 0l-.44.998c-.03.058-.03.092-.03.138 0 .036.04.043.08.036.12-.021.32-.257.41-.456.12-.249.22-.455.33-.703h.36c-.14.335-.3.69-.42.951-.03.053-.06.106-.04.181.01.034.06.027.09.013.15-.088.42-.38.51-.562.09-.215.16-.375.26-.583h.37l-.09.208c.14-.107.28-.221.46-.25.08-.012.18-.007.22.075.06.094.02.192-.02.281-.1.229-.21.477-.31.697-.02.055-.03.105.01.127.06.034.31-.121.44-.403.11-.247.19-.393.29-.634h-.19l.05-.109h.19l.27-.582h.36l-.26.582h.27zm-14.21 2.41c-1-.008-.99-.817-.95-.922.04-.121.1-.23.23-.23.12 0 .23.103.23.23 0 .078-.04.15-.11.188-.13.081-.11.183-.11.183 0 .431.56.465.71.465 1.49 0 1.32-2.454 2.63-3.288.06-.04.11 0 .07.041-.41.514-.57 1.342-.57 1.342.64 0 1.06-.602 1.06-1.023 0-.718-.65-1.017-1.2-1.017-1.54 0-2.2 1.071-2.2 1.656s.37.795.64.795c.37 0 .48-.249.44-.37-.08-.19.03-.349.14-.349.05 0 .2-.008.2.261 0 .259-.37.521-.78.521-.4 0-.98-.218-.98-.858 0-1.301 1.6-1.793 2.54-1.747 1.04.05 1.65.56 1.65 1.108 0 .98-1.55 1.148-1.55 1.148-.27 1.356-1.35 1.874-2.09 1.866m6.97-7.113c-5.63.003-10.19 4.565-10.19 10.193 0 1.534.41 3.261 1.14 4.676 1.31-1.222 4.75-5.106 5.14-5.558.6-.686.86-.25 1.19-.633.17-.211.27-.292.34-.334.13-.073.27-.248.34-.302.07-.052.23-.263.35-.37.13-.105.37-.264.62-.475.25-.212.67-.705 1.13-.705.54 0 .77.369.82.413.04.044.38.34.43.398.06.065.42.35.62.35.19 0 .33.213.43.317.24.211 1.19 1.214 1.5 1.428.15.096.28.079.38.159.11.08.16.131.22.149s.27-.035.5.263l.14.088s.33.295.45.502c.1.18 2.52 3.391 3.38 4.54a10.06 10.06 0 0 0 1.27-4.908c0-5.631-4.57-10.191-10.2-10.191m11.52 12.285-.48.383-.51-.335.22.563-.47.378.61-.036.23.564.15-.586.6-.028-.5-.322m-.47 1.582-.55.282-.44-.425.11.591-.53.284.61.079.11.603.27-.548.58.085-.43-.408"/><path fill="#1e439b" d="M652.65 901.735c-.16 0-.33.158-.43.284-.13.154-.34.449-.37.663-.02.112.03.159.09.159.14 0 .32-.241.43-.448.11-.227.16-.354.29-.641.01-.017 0-.017-.01-.017m-7.12 9.795-.45.416-.54-.281.26.547-.43.403.59-.075.25.542.13-.6.6-.075-.53-.286m1.16-11.941.32.52.04-.595.59-.14-.56-.234.04-.607-.39.46-.55-.235.31.508-.39.457m-2.29 6.266.43-.441.55.27-.29-.53.42-.433-.6.111-.3-.534-.08.598-.58.102.53.257m1.05-3.74.56-.249.41.455-.07-.598.55-.244-.6-.123-.07-.606-.3.527-.58-.127.4.441m-1.07 2.635.5-.348.49.364-.19-.573.5-.345-.61-.007-.19-.579-.19.576-.6-.014.48.353m-.47 5.054.34-.511.59.16-.38-.466.33-.505-.57.221-.4-.465.04.605-.56.209.58.151m1.39 2.276-.46-.384.22-.557-.51.325-.48-.382.15.587-.5.311.59.041.15.582.23-.569m7.52-1.538c-.04.122-.04.277-.05.329-.02.048-.26.552-.32.664-.04.07-.02.098-.04.138-.02.048.01.062.04.028.05-.046.3-.43.38-.477.07-.048.14-.118.16-.282.01-.166.11-.211.19-.307.09-.097.2-.227.26-.359.05-.139.12-.034.25-.241.13-.209.42-.722.48-.822.07-.1.02-.242.01-.362 0-.062.01-.214.05-.38.03-.145.1-.293.14-.391.03-.059.12-.245.11-.32 0-.012-.03-.034-.06-.007-.13.126-.39.578-.49.63-.22.109-.32.37-.39.473-.05.077-.11.202-.21.357-.1.136-.2.336-.24.406-.04.073-.06.141.02.141.07 0 .01.116-.08.245-.04.076-.17.439-.21.537m9.07.27c-.03-.052-.26-.38-.34-.488-.15-.184-.01-.253-.09-.367a6 6 0 0 0-.43-.492 6 6 0 0 0-.34-.312c-.17-.15-.3-.264-.32-.244-.03.029.07.151.12.206.04.053.11.15.2.257.14.173.01.304.15.442.02.023.4.452.5.532.14.123.64.717.67.751.06.054.16.173.18.153.02-.023-.03-.087-.06-.137-.03-.049-.21-.245-.24-.301m-.51.758c-.05-.135-.27-.471-.34-.578s-.19-.344-.31-.494c-.12-.133-.03-.169-.15-.285-.07-.068-.3-.271-.35-.312-.05-.045-.23-.209-.34-.302-.1-.089-.36-.264-.35-.376.01-.117-.05-.336-.14-.41-.06-.051-.24-.343-.45-.512-.1-.089-.32-.32-.5-.522-.16-.192-.28-.367-.32-.342-.05.036.19.373.22.412.02.039.3.523.33.65.03.129.55 1.007.66 1.28.06.159.42.372.57.62.14.23.18.184.23.186.13.005.42.318.48.403s.53.552.65.668c.05.05.42.65.47.607.05-.042-.14-.334-.17-.4-.03-.062-.14-.157-.19-.293m-3.12-2.22c-.09-.236-.56-1.091-.62-1.179a3 3 0 0 0-.23-.372c-.1-.165-.19-.343-.24-.421-.09-.156-.28-.499-.38-.641-.1-.144-.22-.459-.27-.406-.05.046.15.519.23.82.09.299.03.421-.03.507-.04.084-.04.14 0 .292.05.135.22.929.27 1.093s.1.172.13.236c.1.247.24.258.31.278.21.062.22.337.35.58.12.229.24.435.35.685.1.25.65 1.602.75 1.809.03.075.29.075.26 0a8 8 0 0 1-.31-.895c-.06-.243.17-.072.03-.459-.07-.178-.2-.355-.27-.428-.07-.07-.14-.378-.2-.514-.06-.134-.03-.141-.15-.465-.09-.234.16-.156.02-.52m-7.31 1.763c.05-.067.17-.182.21-.24.07-.103.15-.181.18-.206.16-.129.24-.138.29-.21.03-.036.34-.507.45-.698.11-.18.36-.533.3-.589-.04-.032-.5.442-.8.771-.11.113-.18.222-.22.272 0 0-.14.223-.21.316s-.25.357-.33.471c-.02.038-.09.204-.23.376-.07.087-.14.199-.28.371-.18.231-.31.421-.28.445.02.012.28-.306.56-.649.12-.142.25-.29.36-.43m10.37 3.833c-.05.163-.13.253-.22.291-.08.036-.13-.022-.09-.072.03-.05.09-.155.09-.227-.01-.096-.1-.153-.1-.153s-.05-.029-.01-.085l.19-.311s.06-.123.09-.026c.02.107.09.42.05.583m-1.12-.486c.03-.063.1-.238.29-.426a.4.4 0 0 1 .21-.132c.07-.015.08.071.07.123s-.04.147-.11.231-.16.18-.23.226c-.08.045-.13.073-.19.073-.05 0-.06-.031-.04-.095m1.44-.989c-.15.043-.27.365-.35.511-.11.213-.4.628-.4.628s-.35.584-.66.544c-.32-.04-.08-.481-.08-.481.52-.111.73-.368.81-.511.08-.141.02-.359-.2-.345q-.045 0-.09.008l-.06.013a1.1 1.1 0 0 0-.31.131l-.06.043v.001c-.14.098-.31.336-.39.322-.08-.016.02-.179.06-.29.05-.111.06-.177-.03-.179-.1-.002-.24.101-.3.155l-.15.135.13-.228h-.37c-.32.773-.56.972-.56.972s-.18.198-.27.186c-.09-.014-.01-.184-.01-.184l.43-.974h-.35l-.3.647s-.25.514-.47.511c-.1-.001 0-.219 0-.219l.42-.95h-.35s-.31.632-.41.807c-.11.174-.35.388-.45.362a.1.1 0 0 1-.06-.055c-.01-.035.01-.076.01-.076l.42-.93h.27l.05-.112-.27.004.26-.583h-.36l-.28.583h-.18l-.05.108h.18l-.21.472c-.06.119-.52.747-.83.695-.31-.05-.24-.312-.22-.448.03-.176.23-.518.27-.591.05-.071.32-.381.46-.266.12.099 0 .258 0 .258s-.22.143-.14.292c.08.164.27.028.31-.041.16-.226.15-.704-.36-.606-.57.11-.85.765-.85.765s-.31.56-.43.563c-.14.014-.08-.153-.08-.153l.46-1.071h-.34s-.11.237-.31.676c-.19.437-.57.646-.57.646-.02.097.09.053.09.053s.16-.092.3-.235c0 0 .02-.021.02-.01 0 0-.05.311.22.314a.4.4 0 0 0 .21-.062l.03-.018c.15-.094.26-.266.28-.294.04-.049.02-.071.09.082.07.169.22.29.48.293.27.003.51-.188.6-.261l.08-.061c0 .344.28.329.28.329.2.003.5-.295.54-.344 0-.001.01-.004.01-.007v-.002s-.06.288.14.334c.14.036.43-.16.58-.329v-.006c.01-.001.01-.004.01.003 0 0-.07.183.04.299.13.125.44-.07.69-.327v.002l-.15.339h.36l.31-.697s.07-.191.17-.267c.11-.085.03-.026.09.079.12.188.33.056.33.056-.23.562-.08.762.17.841 0 0 .31.121.73-.303 0 0-.03.135.06.223.07.067.23.138.44.071.27-.083.4-.405.42-.614.03-.21-.07-.486-.07-.486s-.17-.429-.01-.524c.18-.115.19-.164.15-.206-.01-.021-.05-.016-.07-.01m-6.91-.049c0-.548-.61-1.059-1.65-1.108-.95-.048-2.55.446-2.55 1.745 0 .641.59.859.99.859.41 0 .78-.262.78-.52 0-.269-.16-.262-.2-.262-.12 0-.22.159-.15.35.05.121-.07.37-.44.37-.27 0-.63-.211-.63-.797 0-.583.66-1.655 2.2-1.655.54 0 1.19.299 1.19 1.018 0 .42-.42 1.022-1.05 1.022 0 0 .16-.827.57-1.342.03-.041-.02-.081-.08-.041-1.31.834-1.14 3.288-2.63 3.288-.14 0-.7-.033-.7-.465 0 0-.02-.101.11-.182.06-.038.1-.111.1-.188 0-.128-.1-.231-.23-.231-.12 0-.19.11-.23.231-.03.105-.05.914.95.922.75.008 1.83-.51 2.09-1.868 0 0 1.56-.167 1.56-1.146m.66.154c.04-.105 0-.219-.09-.255s-.2.02-.24.125c-.04.106 0 .22.09.255s.2-.02.24-.125"/></svg>