<?xml version="1.0" encoding="UTF-8"?>
<svg id="Layer_2" data-name="Layer 2" xmlns="http://www.w3.org/2000/svg" viewBox="0 0 1224.3 1198.15">
  <defs>
    <style>
      .cls-1 {
        fill: #000;
        stroke-width: 0px;
      }
    </style>
  </defs>
  <g id="Layer_1-2" data-name="Layer 1">
    <path class="cls-1" d="M601.94,0c152.84,3,282.96,43.24,394.2,132.91,101.71,82,173.99,185.81,207.79,313.51,30.42,114.94,26.81,229.66-11.23,342.18-36.03,106.55-100.12,193.96-185.82,267.14-65.57,55.99-139.78,93.9-221.49,117.55-101.74,29.45-204.88,32.79-308.62,9.72-80.95-18.01-156.94-48.43-223.42-97.99-96.91-72.26-172.86-161.91-215.1-277.14C-1.89,698.35-11.32,586.97,14.15,472.35c28.49-128.21,94.22-232.86,191.51-319.9C321.81,48.54,459.75,5.25,601.94,0ZM1112.14,265.39c-3.3,2.36-5.33,3.49-6.97,5.03-67.39,63.4-134.7,126.88-202.13,190.24-25.02,23.51-49.78,47.35-75.76,69.76-11.63,10.03-15.65,20.9-15.59,35.69.39,112.85.22,225.69.29,338.54,0,5.14.6,10.28.96,16.03h299.21V265.39ZM112.29,919.29c2.95,1.23,3.8,1.9,4.65,1.9,94.21.06,188.43.16,282.64-.14,4.87-.02,10.92-2.09,14.41-5.35,56.56-52.78,112.53-106.18,169.17-158.88,70.38-65.49,140.86-130.89,212.28-195.24,11.92-10.74,16.79-20.95,16.68-36.33-.6-81.93-.48-163.87-.68-245.8,0-3.94-.75-7.88-1.56-15.8-234.13,220.05-465.32,437.34-697.59,655.65ZM378.99,337.37v227.99c146.82-7.87,235.05-114.1,237.02-227.99h-237.02ZM366.6,337.58H126.43c11.73,154.01,140.12,231.75,240.17,225.23v-225.23ZM126.58,325.87h239.92V97.42c-134.69-.13-234.85,109.28-239.92,228.45ZM378.9,98.13v228.85h238c-.4-126.49-120.21-232.78-238-228.85Z"/>
  </g>
</svg>