<?xml version="1.0" encoding="UTF-8" standalone="no"?>
<svg
   id="Layer_1"
   data-name="Layer 1"
   viewBox="0 0 1000.0001 545.77766"
   version="1.1"
   width="1000"
   height="545.77765"
   xmlns="http://www.w3.org/2000/svg"
   xmlns:svg="http://www.w3.org/2000/svg">
  <defs
     id="defs1">
    <style
       id="style1">
      .cls-1 {
        fill: #231f20;
      }
    </style>
  </defs>
  <path
     class="cls-1"
     d="m 138.94339,0 h 83.70664 L 363.25941,391.65525 H 278.99744 L 252.23057,308.39287 H 108.25219 L 82.04065,391.65525 H 0 Z M 127.20743,247.60282 H 232.68298 L 196.9568,134.75991 C 190.25582,113.95357 180.7782,74.48817 180.7782,74.48817 h -1.11066 c 0,0 -10.03295,39.42838 -16.73392,60.27174 z"
     id="path1"
     style="fill:#000000;fill-opacity:1;stroke-width:3.7022" />
  <polygon
     class="cls-1"
     points="270.11,87.89 212.24,87.89 212.24,61.13 262.58,61.13 262.58,43.52 212.24,43.52 212.24,18.05 270.09,18.05 270.09,0 190.38,0 190.38,105.8 270.11,105.8 "
     id="polygon1"
     style="fill:#000000;fill-opacity:1"
     transform="scale(3.7021954)" />
  <polygon
     class="cls-1"
     points="138.51,18.2 138.51,51.6 171.88,51.6 171.88,53.8 138.51,53.8 138.51,87.51 136.11,87.51 136.11,53.8 102.89,53.8 102.89,51.6 136.11,51.6 136.11,18.2 "
     id="polygon2"
     style="fill:#000000;fill-opacity:1"
     transform="scale(3.7021954)" />
  <g
     id="g12"
     style="fill:#000000;fill-opacity:1"
     transform="scale(3.7021954)">
    <path
       class="cls-1"
       d="m 29.39,144.37 h -0.06 c -1.46,2.04 -3.61,3.05 -6.24,3.05 -5.63,0 -9.41,-4.28 -9.41,-10.36 0,-6.08 3.33,-10.5 9.63,-10.5 4.65,0 7.5,2.52 8.15,6.44 h -2.6 c -0.56,-2.66 -2.44,-4.26 -5.6,-4.26 -4.82,0 -7,3.61 -7,8.32 0,4.71 2.86,8.18 6.92,8.18 4.06,0 6.05,-2.8 6.05,-6.16 v -0.48 h -6.02 v -2.18 h 8.54 V 147 h -1.62 l -0.73,-2.63 z"
       id="path2"
       style="fill:#000000;fill-opacity:1" />
    <path
       class="cls-1"
       d="m 39.42,126.98 h 2.52 v 17.7 h 10.5 V 147 H 39.42 Z"
       id="path3"
       style="fill:#000000;fill-opacity:1" />
    <path
       class="cls-1"
       d="m 57.11,136.98 c 0,-5.99 3.75,-10.44 9.8,-10.44 6.05,0 9.8,4.45 9.8,10.44 0,5.99 -3.75,10.44 -9.8,10.44 -6.05,0 -9.8,-4.45 -9.8,-10.44 z m 17.03,0 c 0,-4.7 -2.52,-8.26 -7.22,-8.26 -4.7,0 -7.22,3.56 -7.22,8.26 0,4.7 2.52,8.23 7.22,8.23 4.7,0 7.22,-3.53 7.22,-8.23 z"
       id="path4"
       style="fill:#000000;fill-opacity:1" />
    <path
       class="cls-1"
       d="m 83.91,126.98 h 8.48 c 2.1,0 3.7,0.56 4.82,1.74 0.81,0.84 1.29,1.99 1.29,3.42 0,2.21 -1.23,3.58 -3.22,4.2 v 0.08 c 2.27,0.53 4.03,2.16 4.03,4.84 0,1.54 -0.53,2.86 -1.46,3.84 -1.12,1.2 -2.86,1.9 -5.01,1.9 h -8.93 z m 8.17,8.57 c 2.44,0 3.89,-1.2 3.89,-3.28 0,-1.93 -1.32,-3.11 -3.56,-3.11 h -5.99 v 6.38 h 5.66 z m 0.65,9.18 c 1.43,0 2.46,-0.36 3.14,-1.01 0.56,-0.59 0.9,-1.37 0.9,-2.32 0,-2.49 -1.76,-3.72 -4.2,-3.72 h -6.13 v 7.06 h 6.3 z"
       id="path5"
       style="fill:#000000;fill-opacity:1" />
    <path
       class="cls-1"
       d="m 111.91,126.98 h 2.83 l 7.39,20.02 h -2.74 l -2.13,-6.1 h -7.98 l -2.16,6.1 h -2.58 l 7.36,-20.02 z M 110,138.85 h 6.55 l -2.3,-6.72 c -0.39,-1.12 -0.9,-2.83 -0.9,-2.83 h -0.06 c 0,0 -0.53,1.68 -0.92,2.83 l -2.38,6.72 z"
       id="path6"
       style="fill:#000000;fill-opacity:1" />
    <path
       class="cls-1"
       d="M 128.48,126.98 H 131 v 17.7 h 10.5 V 147 h -13.02 z"
       id="path7"
       style="fill:#000000;fill-opacity:1" />
    <path
       class="cls-1"
       d="m 156.85,126.98 h 3.22 l 6.5,16.63 h 0.06 l 6.44,-16.63 h 3.28 V 147 h -2.41 v -16.46 h -0.06 c 0,0 -0.53,1.57 -0.9,2.52 L 167.49,147 h -1.93 l -5.49,-13.94 c -0.39,-1.01 -0.9,-2.52 -0.9,-2.52 h -0.06 V 147 h -2.27 v -20.02 z"
       id="path8"
       style="fill:#000000;fill-opacity:1" />
    <path
       class="cls-1"
       d="m 184.29,126.98 h 14.14 v 2.21 h -11.62 v 6.33 h 10.56 v 2.13 h -10.56 v 7.03 h 11.96 V 147 h -14.48 z"
       id="path9"
       style="fill:#000000;fill-opacity:1" />
    <path
       class="cls-1"
       d="m 205.9,126.98 h 7.28 c 6.02,0 8.88,4.09 8.88,10.08 0,5.99 -3.05,9.94 -9.07,9.94 h -7.08 v -20.02 z m 7,17.81 c 4.7,0 6.58,-3.02 6.58,-7.73 0,-4.71 -1.68,-7.9 -6.38,-7.9 h -4.68 v 15.62 h 4.48 z"
       id="path10"
       style="fill:#000000;fill-opacity:1" />
    <path
       class="cls-1"
       d="m 229.31,126.98 h 2.52 V 147 h -2.52 z"
       id="path11"
       style="fill:#000000;fill-opacity:1" />
    <path
       class="cls-1"
       d="m 245.61,126.98 h 2.83 l 7.39,20.02 h -2.74 l -2.13,-6.1 h -7.98 l -2.16,6.1 h -2.58 l 7.36,-20.02 z m -1.91,11.87 h 6.55 l -2.3,-6.72 c -0.39,-1.12 -0.9,-2.83 -0.9,-2.83 h -0.06 c 0,0 -0.53,1.68 -0.92,2.83 l -2.38,6.72 z"
       id="path12"
       style="fill:#000000;fill-opacity:1" />
  </g>
</svg>
