<?xml version="1.0" encoding="UTF-8"?>
<svg id="Layer_1" data-name="Layer 1" xmlns="http://www.w3.org/2000/svg" viewBox="0 0 1960.99 1120.81">
  <defs>
    <style>
      .cls-1 {
        fill: #d81c2b;
      }

      .cls-2 {
        fill: #ca1773;
      }

      .cls-3 {
        fill: #d31b43;
      }

      .cls-4 {
        fill: #d51b37;
      }

      .cls-5 {
        fill: #d91b24;
      }

      .cls-6 {
        fill: #c5178c;
      }

      .cls-7 {
        fill: #c8177b;
      }

      .cls-8 {
        fill: #ca1871;
      }

      .cls-9 {
        fill: #dc242c;
      }

      .cls-10 {
        fill: #d71b2e;
      }

      .cls-11 {
        fill: #c71680;
      }

      .cls-12 {
        fill: #d92433;
      }

      .cls-13 {
        fill: #d31f4e;
      }

      .cls-14 {
        fill: #d71b2d;
      }

      .cls-15 {
        fill: #d31b45;
      }

      .cls-16 {
        fill: #d21a4c;
      }

      .cls-17 {
        fill: #cc1869;
      }

      .cls-18 {
        fill: #ca1a76;
      }

      .cls-19 {
        fill: #cc1968;
      }

      .cls-20 {
        fill: #fbeff1;
      }

      .cls-21 {
        fill: #c61687;
      }

      .cls-22 {
        fill: #cf1b5e;
      }

      .cls-23 {
        fill: #d41c40;
      }

      .cls-24 {
        fill: #cf195a;
      }

      .cls-25 {
        fill: #d51b3b;
      }

      .cls-26 {
        fill: #d01a54;
      }

      .cls-27 {
        fill: #ce1a61;
      }

      .cls-28 {
        fill: #d91b26;
      }

      .cls-29 {
        fill: #d61b34;
      }
    </style>
  </defs>
  <path class="cls-6" d="M121.69,914.38c-55.83-32.25-93.63-81.26-111.09-143.64l-10.09-45.49c1.18-19.96-1.6-41.65,0-61.38,6.59-81.51,50.74-156.35,121.18-197.42v447.92Z"/>
  <path class="cls-5" d="M1431.45,935.95l193.34-491.11,142.88-1.73,193.33,492.84h-140.27l-35.13-84.34-175.79-.36-5.58,2.72-34.17,81.98h-138.61ZM1642.27,753.46h107.9l-53.93-155.95-53.97,155.95Z"/>
  <path class="cls-14" d="M1192.4,443.23c65.26.5,118.87-6.3,173.4,36.57,48.16,37.86,60.39,92.07,40.34,149.67-10.37,29.79-31.29,49.49-56.04,67.57,100.52,24.05,102.62,162.51,20.43,212.05-54.44,32.82-117.16,26.47-178.13,26.86v-97.88c37.3.83,105.54,2.4,107.97-48.86,2.93-61.9-64.78-56.66-107.97-55.65v-91.24c49.92,1.11,109.18,7.6,101.27-62.22-1.3-11.44-10.52-25.17-20.41-31.03-16.56-9.81-61.27-9.71-80.86-7.95v-97.88Z"/>
  <path class="cls-4" d="M1192.4,443.23v97.88c-2.94.26-8.56,3.33-13.29,1.65l-.02,98.59c.27,1.78,10.72.9,13.31.95v91.24c-4.41.1-8.88-.08-13.29,0l-.02,103.57c.27,1.78,10.72.9,13.31.95v97.88c-48.66.31-97.42-.23-146.08,0v-492.72c48.66.28,97.42-.38,146.08,0Z"/>
  <path class="cls-3" d="M858.74,914.38l-1.66-149.31c23.23-40.13,22.49-112.98-1.66-152.63l1.66-147.65c206.42,85.09,207.46,363.39,1.66,449.58Z"/>
  <path class="cls-26" d="M735.9,443.23v109.49c-12.11-.53-24.4.39-36.52,0v275.39h39.84v107.83c-34.24.55-68.67.1-102.92,0v-492.72c33.11-.1,66.51-.76,99.6,0Z"/>
  <path class="cls-24" d="M636.3,443.23v492.72c-23.22-.07-46.51.05-69.72,0v-492.72c23.22-.05,46.51.07,69.72,0Z"/>
  <path class="cls-10" d="M1398.25,98.17v77.97c-24.88,3.27-51.92,9.77-75.56,18.22-16.35,5.84-35.12,13.07-47.27,25.75,1.08,2,4.89.42,6.69.05,32.87-6.76,61.61-16.75,96.22-22.46v69.68c-49.12,1.32-99.36,5-141.09,33.2-.46,2.83,3.97,1.78,5.65,1.5,8.41-1.42,18.37-5.63,27.48-7.39,26.17-5.05,51.45-5.73,78.08-5.75v76.31c-42.3-1.96-83.52-6.58-126.16-4.98v-190.78c52.42-45.77,108.27-61.11,175.96-71.34Z"/>
  <path class="cls-28" d="M1398.25,176.14v-77.97c56.86-8.59,114.78-10.81,171.55-20.17,60.52-9.98,123.55-26.78,162.12-77.71v25.71c0,7.57-5.93,28.16-8.7,36.1-42.27,121.07-222.91,100.61-324.97,114.04Z"/>
  <path class="cls-26" d="M725.94,162.87l-3.42,7.38.1,190.04c-38.33-.82-74.86,3.23-112.88,4.98v-76.31c38.33,0,74.4,2.64,111.19,14.12-28.29-23.32-67.12-30.86-102.89-34.03v-63.04c1.74.41,4.45-.22,7,.39,18.64,4.49,36.96,11.66,56.08,14.52-10.84-14.16-31.72-20.59-48.14-26.53v-79.63c38.55,11.85,61.45,23.03,92.96,48.11Z"/>
  <path class="cls-28" d="M1378.32,197.7c22.55-3.72,44.04-7.44,67.16-8.36,66.39-2.66,155.23,9.97,215.64-20.07,5.34-2.66,13.43-9.88,16.85-11.37,2.5-1.08,2.54.57,2.52,2.5-.2,25.98-22.57,59.77-42.67,75.18-59.43,45.55-186.7,29.84-259.51,31.8v-69.68Z"/>
  <path class="cls-8" d="M388.95,660.56l-.1,259.72,3.42,7.38c-30.99,14.23-63.66,22.83-97.94,24.88v-106.17c42.56-4.52,83.71-39.79,83.01-84.62-19.9-.03-39.87.06-59.77,0v-101.2c23.77-.07,47.61.03,71.38,0Z"/>
  <path class="cls-17" d="M466.97,660.56l1.66,210.69c-22.64,26.47-44.89,41.95-76.36,56.41l-3.42-7.38.1-259.72c25.98-.03,52.04-.08,78.02,0Z"/>
  <path class="cls-25" d="M1008.14,381.85v-91.24c2.24-.1,5.23,1.01,6.81-1.03l29.74-82.73c-.12-1.82-32.77-.9-36.54-.85v-92.9c147.02,28.9,147.32,239.37,0,268.75ZM1079.52,204.34c-6.6.5-14.73,1.65-19.92,5.81v80.46h19.92v-86.27Z"/>
  <path class="cls-23" d="M1008.14,113.1v92.9c-6.07.09-12.2-.06-18.27,0v16.6h29.89l-23.21,65.59c-1.07,4.06,8.9,2.56,11.59,2.43v91.24c-2.38.48-8.77,3.32-10.79,3.32h-33.2c-7.5,0-26.21-6.99-34.03-9.95l1.66-86.27c1.79.8,14.99,3.17,17.26,3.14,26.56-.41,41.14-28.73,17.63-45.44,27.73-24.79-7.35-54.01-34.89-38.99l-1.66-87.93c29.19-11.06,47.28-12.68,78.02-6.64Z"/>
  <path class="cls-2" d="M380.65,446.55c-3.79,1.16-3.24,4.28-3.42,7.38-2.85,49.61,3.71,101.04-1.56,150.23-23.71-44.47-68.15-71.59-119.52-66.36v-109.49c44.62-1.95,83.21,1,124.5,18.25Z"/>
  <path class="cls-21" d="M166.51,446.55c1.89,2.76,1.62,5.89,1.73,9.04,1.55,44.42-1.3,89.19-.07,133.63-34.92,53.27-41.11,130.56-11.62,187.46l-3.32,152.63c-12.72-5.3-19.32-7.87-31.54-14.93v-447.92c16.57-9.66,27.38-13.64,44.82-19.91Z"/>
  <path class="cls-16" d="M857.08,464.8l-1.66,147.65c-24.71-40.56-74.33-57.76-119.52-59.72v-109.49c47.37,1.09,77.21,3.44,121.18,21.57Z"/>
  <path class="cls-16" d="M858.74,914.38c-45.1,18.89-70.68,20.79-119.52,21.57v-107.83c44.88-3.42,94.36-22.44,117.86-63.04l1.66,149.31Z"/>
  <path class="cls-15" d="M930.12,119.73l1.66,87.93c-14.68,8.01-15.46,29.27-1.69,38.99-11.63,7.04-15.78,21.18-7.99,32.9,1.1,1.65,8.59,8.91,9.68,9.4l-1.66,86.27c-116.24-44.07-116.23-211.45,0-255.48ZM901.9,204.34c-6.69-.21-14.48,1.71-19.92,5.81v80.46h19.92v-86.27Z"/>
  <path class="cls-16" d="M722.62,360.28l-.1-190.04,3.42-7.38c54.07,43.04,83.26,100.79,89.62,170.06.82,8.88,2.68,32.04,1.75,39.88-.29,2.47-.15,4.23-2.61,5.72-29.27-15.62-59.66-17.55-92.08-18.25Z"/>
  <path class="cls-19" d="M380.65,446.55c56.31,23.52,99.8,61.83,124.56,118.54l-126.07,50.55-3.47-11.48c5.27-49.19-1.28-100.61,1.56-150.23.18-3.09-.37-6.22,3.42-7.38Z"/>
  <path class="cls-1" d="M1348.44,288.95c62.9-.04,125.42,8.86,188.48,6.7,8.1-.28,16.99-3.21,25.66-1.71-20.43,24.1-46.55,43.76-75.77,56.15-44.8,19-90.75,17.38-138.38,15.17v-76.31Z"/>
  <path class="cls-29" d="M1222.28,360.28c-28.83,1.08-55.1,5.77-81.33,18.24-3.62-83.2,18.12-153.82,81.33-209.02v190.78Z"/>
  <path class="cls-11" d="M256.15,428.3v109.49c-8.13.83-22.76,5.26-30.75,8.26-23.52,8.81-40.4,25.38-57.23,43.17-1.23-44.44,1.62-89.21.07-133.63-.11-3.15.16-6.28-1.73-9.04,32.54-11.69,54.63-16.72,89.64-18.25Z"/>
  <path class="cls-27" d="M466.97,660.56c22.1.07,44.4-.84,66.43.95-1.08,40.29-2.97,80.97-14.53,119.76-9.28,31.14-29.23,65.42-50.24,89.98l-1.66-210.69Z"/>
  <path class="cls-7" d="M294.33,846.36v106.17c-30.76,1.84-58.16-.7-87.98-6.64v-114.47c22.26,13.43,62.44,17.64,87.98,14.93Z"/>
  <path class="cls-22" d="M618.04,206v63.04c-38.98-3.44-80.21-1.48-119.52-1.66v-77.97c44.37,1.35,76.93,6.57,119.52,16.59Z"/>
  <path class="cls-22" d="M609.74,288.95v76.31c-39.92,1.84-71.95,3.1-111.22-6.64v-64.7c37.17-1.59,73.99-4.98,111.22-4.98Z"/>
  <path class="cls-19" d="M498.51,189.41v77.97c-10.18-.05-20.88,0-30.71,0h-43.16c-8.24,0-22.1-3.55-30.71-4.98v-72.99c34.71,1.47,69.83-1.06,104.58,0Z"/>
  <path class="cls-25" d="M1067.9,1022.22l14.96,59.72c2.39-.2,2.6-2.45,3.36-4.09,7.48-16.19,9.75-38.57,18.14-54.87l19.77-.55c2.43,1.58,13.14,47.84,16.66,55.51.89,1.93-.81,3.01,3.47,2.34l17.44-58.07h24.07l-29.81,95.46-26.56.69-15.84-53.03-17.59,52.94-23.97.28-28.99-96.33h24.9Z"/>
  <path class="cls-8" d="M388.95,78.26l-1.66,82.95c-32.45-4.9-64.32-12.07-92.96-28.2l1.66-77.97c25.79,10.93,65.02,18.65,92.96,23.23Z"/>
  <path class="cls-19" d="M475.27,89.87v79.63c-29.37-2.82-58.76-3.88-87.98-8.29l1.66-82.95c28.31,4.64,57.81,8.11,86.32,11.61Z"/>
  <path class="cls-24" d="M632.98,114.76v79.63c-31.05-11.24-55.52-14.36-87.98-18.25l1.66-79.63c29.81,4.09,57.79,9.48,86.32,18.25Z"/>
  <path class="cls-11" d="M206.35,831.43v114.47c-22.31-4.44-32.57-8.03-53.12-16.59l3.32-152.63c9.6,18.53,31.94,43.96,49.8,54.75Z"/>
  <path class="cls-8" d="M393.93,189.41v72.99c-62.55-10.37-111.26-37.49-117.04-106.17,31.66,25.9,77.18,31.49,117.04,33.17Z"/>
  <path class="cls-13" d="M760.8,1024.7c1.29-4.19,21.85-2.68,26.55-1.65,14.11,17.32,26.49,36.53,41.03,53.45,1.03,1.2-.08,3.11,3.81,2.11v-56.41h24.9v96.22h-25.73l-43.99-56.41v56.41h-26.56v-93.73Z"/>
  <path class="cls-24" d="M604.76,1022.22l44.82,58.06v-58.06c7.87,1.1,18.66-2.68,24.9,2.49v93.73h-26.56l-43.16-56.41v56.41h-26.56v-93.73l2.49-2.49h24.07Z"/>
  <path class="cls-15" d="M968.3,1065.35c3.66,21.64-10.79,51.42-34.18,54.6-39.21,5.34-69.78-14.35-64.96-56.63,5.55-48.68,73.8-60.73,94.05-17.22l-23.66,9.4c-21.78-34.19-55.83.51-40.7,31.96,8.41,17.49,37.67,18.76,39.57-2.2l-19.2-1.56-.72-18.35h49.8Z"/>
  <path class="cls-6" d="M38.69,1118.44v-96.22h39.01c36.74,0,57.74,50.2,33.07,79.5-4.59,5.45-21.33,16.72-28.09,16.72h-43.99ZM63.59,1096.87c42.96,4.59,42.73-56.12,0-53.09v53.09Z"/>
  <path class="cls-27" d="M546.66,96.51l-1.66,79.63c-23.23-2.78-46.45-4.4-69.72-6.64v-79.63c23.6,2.9,47.64,3.38,71.38,6.64Z"/>
  <polygon class="cls-28" points="1635.63 1022.22 1635.63 1058.71 1670.49 1058.71 1670.49 1022.22 1695.39 1022.22 1695.39 1118.44 1670.49 1118.44 1670.49 1080.28 1635.63 1080.28 1635.63 1118.44 1610.73 1118.44 1610.73 1022.22 1635.63 1022.22"/>
  <path class="cls-27" d="M501.83,1022.22v36.5h34.86v-34.01c6.24-5.16,17.03-1.39,24.9-2.49v96.22h-24.9v-38.16h-34.86v38.16h-24.9v-96.22h24.9Z"/>
  <path class="cls-18" d="M330.02,1022.22c24.72,2.94,33.18,25.87,17.44,43.98v2.45c17.85.96,21.03,27.2,11.65,39.04-3.19,4.03-16.15,10.74-20.79,10.74h-47.31v-96.22c12.39,1.06,26.91-1.44,39.01,0ZM315.91,1060.38c21.79,2.29,22.01-20.09,0-18.26v18.26ZM315.9,1098.54c9.68.22,17.79,1.94,23.02-7.82-.32-12.39-13.47-12.69-23.02-12.1v19.92Z"/>
  <path class="cls-12" d="M1376.66,1058.71l29.05-36.5h30.71l-36.35,47.05,39.67,49.17h-32.37l-30.71-38.16v38.16h-26.56v-93.73c6-4.08,20.76-4.02,26.56,0v34.01Z"/>
  <path class="cls-10" d="M1304.45,1022.22c28.28,3.12,39.09,28.08,22.47,50.66-1.53,3.47-12.36,4.9-11.58,8.12,1.81,7.46,24.38,28.28,28.12,37.44h-30.71l-24.07-34.84v34.84h-24.9v-96.22c13,1.03,27.93-1.4,40.67,0ZM1288.68,1065.35c26.36,3.07,26.44-25.93,0-23.23v23.23Z"/>
  <path class="cls-19" d="M402.23,1022.22v62.21c0,1.91,4.51,10.01,6.68,11.58,5.92,4.3,17.96,3.84,22.35-2.48,1.14-1.64,4.18-10.97,4.18-12.42v-58.89h24.9v67.19c0,9.11-9.3,21.5-17.08,26.06-11.91,6.98-37.01,6.57-49.15.32-6.81-3.51-16.77-15.41-16.77-23.06v-70.51h24.9Z"/>
  <path class="cls-28" d="M1705.35,1118.44l35.03-93.57c4.3-5.49,18.76-1.38,25.63-2.77l37.28,96.33h-26.56l-5.17-16.39-34.86.78-4.79,15.61h-26.56ZM1763.44,1081.93c1-.95-6.24-21.87-7.49-24.88-.66-1.58-.17-3.8-2.45-3.31l-8.31,28.18h18.25Z"/>
  <path class="cls-7" d="M294.33,133C244.95,105.18,223.49,56.08,224.62.29c3.86-1.04,2.78.91,3.8,2.1,19.67,22.95,38.96,40.51,67.57,52.64l-1.66,77.97Z"/>
  <path class="cls-18" d="M317.57,660.56v101.2c-15.47-.04-31.01.03-46.48,0v-101.2c15.47-.03,31.01.04,46.48,0Z"/>
  <path class="cls-1" d="M1509.34,1027.33l-8.33,19.67c-1.83,1.28-13.88-9.31-24.02-3.32-16.39,9.7,19.5,17.67,25.31,21.34,21.06,13.3,12.57,46.74-9.91,53.77-12.04,3.77-36.99,1.69-46.92-7-4.25-3.72,5.66-17.13,8.48-21.55,7.03,6.75,32.23,14.96,33.57.56.86-9.24-20.56-11.85-27.33-15.21-15.17-7.54-16.8-23.01-10.53-37.66,10-23.37,40.48-19.73,59.67-10.61Z"/>
  <path class="cls-12" d="M1248.84,1043.78h-29.88v16.59h28.22c-.95,6.88,2.5,16.29-2.49,21.57h-25.73v14.93h29.88v21.57h-56.44v-93.73l2.49-2.49h51.46c4.99,5.27,1.54,14.69,2.49,21.57Z"/>
  <path class="cls-26" d="M745.86,1022.22v21.57h-27.39c-3.92,3.57-3.92,13.02,0,16.59h25.73v21.57h-28.22v14.93h29.88v21.57h-54.78v-96.22h54.78Z"/>
  <path class="cls-11" d="M231.25,1043.78h-29.88v16.59h28.22c-.95,6.88,2.5,16.29-2.49,21.57h-25.73v14.93h29.88v21.57h-54.78v-96.22h52.29c4.99,5.27,1.54,14.69,2.49,21.57Z"/>
  <path class="cls-23" d="M1036.36,1043.78h-29.88v16.59h28.22c-.95,6.88,2.5,16.29-2.49,21.57h-25.73v14.93h29.88v21.57h-54.78v-96.22h52.29c4.99,5.27,1.54,14.69,2.49,21.57Z"/>
  <path class="cls-1" d="M1594.13,1023.87v29.86c-4.37-2.47-8.04-6.38-13.16-7.58-35.58-8.34-44.43,37.99-18.36,48.2,13.77,5.4,19.63-.19,31.52-5.78v28.2c-97.21,26.71-96.3-118.65,0-92.9Z"/>
  <path class="cls-19" d="M498.51,293.92v64.7c-41.73-10.35-76.42-32.1-104.58-64.68,34.91,2.84,69.74,1.47,104.58-.02Z"/>
  <polygon class="cls-9" points="1868.03 1022.22 1868.03 1043.78 1838.15 1043.78 1838.15 1060.37 1864.71 1060.37 1864.71 1081.94 1838.15 1081.94 1838.15 1118.44 1811.59 1118.44 1811.59 1024.7 1814.08 1022.22 1868.03 1022.22"/>
  <polygon class="cls-9" points="1941.07 1022.22 1941.08 1043.79 1921.15 1043.78 1921.15 1118.44 1894.59 1118.44 1894.59 1043.78 1874.66 1043.79 1874.67 1022.22 1941.07 1022.22"/>
  <path class="cls-6" d="M159.87,1118.44h-26.56v-93.73c5.99-4.08,20.76-4.02,26.56,0v93.73Z"/>
  <path class="cls-18" d="M398.46,991.02c23.16-5,22.03,31.18-1.3,23.8-10.8-3.42-10.27-21.3,1.3-23.8Z"/>
  <path class="cls-19" d="M429.96,991.04c18.03-5.4,23.19,20.02,9.28,24.19-18.03,5.4-23.19-20.02-9.28-24.19Z"/>
  <path class="cls-20" d="M1079.52,204.34v86.27h-19.92v-80.46c5.19-4.15,13.32-5.31,19.92-5.81Z"/>
  <path class="cls-20" d="M901.9,204.34v86.27h-19.92v-80.46c5.44-4.09,13.23-6.02,19.92-5.81Z"/>
  <path class="cls-20" d="M315.91,1060.38v-18.26c22.01-1.83,21.79,20.56,0,18.26Z"/>
  <path class="cls-20" d="M1288.68,1065.35v-23.23c26.44-2.7,26.36,26.29,0,23.23Z"/>
  <path class="cls-20" d="M1763.44,1081.93h-18.25s8.31-28.18,8.31-28.18c2.28-.49,1.79,1.72,2.45,3.31,1.25,3.01,8.49,23.93,7.49,24.88Z"/>
  <path class="cls-13" d="M944.61,252.78c21.86-4.81,20.09,29.21-1.3,22.17-9.36-3.08-9.01-19.9,1.3-22.17Z"/>
  <path class="cls-15" d="M940.47,221.32c7.53-7.53,24.24,2.71,16.32,13.83-8.45,11.87-26.08-4.08-16.32-13.83Z"/>
</svg>