<svg data-name="Capa 2" viewBox="0 0 600.2 122.1" xmlns="http://www.w3.org/2000/svg"><g data-name="Capa 1"><path d="m166.2 59-18.3-44.9h8.6L167 40.9l11.5-28 11.4 28 10.4-26.8h8.3L190.3 59l-12.1-28.9-12 28.9Zm81.8-1.7h-8.4l-4.4-9.3h-18.4l-4.4 9.3H204l22-44.9 22 44.9Zm-28.2-15.5h12.6L226 28.5l-6.2 13.3Zm41.8 15.5h-8V14.1h12.2c9.5 0 16.3 4.9 16.3 13.4 0 5.9-3.3 9.9-8.5 11.8l13.4 18h-9.3l-12.4-16.7h-3.8v16.7h.1Zm0-23.1h4.2c4.9 0 8.2-2.4 8.2-6.7s-3.3-6.8-8.2-6.8h-4.2v13.5Zm124.9 23.1h-8V14.1h12.2c9.5 0 16.3 4.9 16.3 13.4 0 5.9-3.3 9.9-8.5 11.8l13.4 18h-9.3l-12.4-16.7h-3.8v16.7h.1Zm0-23.1h4.2c4.9 0 8.2-2.4 8.2-6.7s-3.3-6.8-8.2-6.8h-4.2v13.5Zm-62.2-20.1h7.8v44.8l-30.4-29.3v27.6h-7.8V12.4l30.4 29.3V14.1Zm18.2 0h26.6v6.6h-18.8v11.2h17.3v6.7h-17.3v12.1h18.9v6.6h-26.7V14.1Zm90.6 0h12.4c9.6 0 14.7 4.5 14.7 11.4 0 4.4-2.7 7.6-6 9 4.9 1.3 8.7 5 8.7 10.5 0 7.6-5.9 12.3-15.3 12.3h-14.5V14.1ZM445 32.4c4.5 0 7.3-2 7.3-5.8s-2.8-5.9-7.3-5.9h-4.1v11.6h4.1v.1Zm2.1 18.2c4.6 0 7.6-2.4 7.6-6.2s-3.1-6.1-7.6-6.1h-6.2v12.4h6.2v-.1Zm32.1 6.7h-8V14.1h12.2c9.5 0 16.3 4.9 16.3 13.4 0 5.9-3.3 9.9-8.5 11.8l13.4 18h-9.3L483 40.6h-3.8v16.7Zm0-23.1h4.2c4.9 0 8.2-2.4 8.2-6.7s-3.3-6.8-8.2-6.8h-4.2v13.5Zm72.1 1.5c0 12.3-9.8 22.3-22.1 22.3s-22.1-10-22.1-22.3 9.8-22.3 22.1-22.3 22.1 10 22.1 22.3Zm-36.1 0c0 8.5 6.3 14.9 14.1 14.9s14.1-6.4 14.1-14.9-6.3-14.9-14.1-14.9-14.1 6.4-14.1 14.9ZM570 51.2c4.4 0 7.5-2 7.5-5.5 0-2.8-1.8-4-4.6-5.4l-7.2-3.4c-4.7-2.2-8.6-5-8.6-11.1 0-7.5 6.1-12.4 14.2-12.4 4.9 0 9.3 2.1 11.6 4.3V26c-3.3-3.3-7.6-5.7-11.9-5.7-3.6 0-6.3 1.8-6.3 5 0 2.4 1.7 3.6 4.1 4.8l6.7 3.1c6.3 2.9 9.6 5.9 9.6 11.9 0 8-6.7 13-15.2 13-5.5 0-10.3-2.1-13.2-4.3v-8.2c3.8 3 8.4 5.6 13.3 5.6Zm30.2 1.4c0 2.8-2.2 5-5 5h-.1c-2.8 0-5-2.2-5-5s2.2-5 5-5h.1c2.8.1 5 2.3 5 5ZM425.6 115h-8V71.9h12.2c9.5 0 16.3 4.9 16.3 13.4 0 5.9-3.3 9.9-8.5 11.8l13.4 18h-9.3l-12.4-16.7h-3.8V115h.1Zm0-23h4.2c4.9 0 8.2-2.4 8.2-6.7s-3.3-6.8-8.2-6.8h-4.2V92Zm-44.4-20.1h26.6v6.6H389v11.2h17.3v6.7H389v12.1h19v6.6h-26.7V71.9h-.1Zm-50.1 21.5c0 12.3-9.8 22.3-22.1 22.3s-22.1-10-22.1-22.3 9.8-22.3 22.1-22.3c12.3.1 22.1 10 22.1 22.3Zm-36.2 0c0 8.5 6.3 14.9 14.1 14.9s14.1-6.4 14.1-14.9-6.3-14.9-14.1-14.9-14.1 6.4-14.1 14.9ZM166.6 71.9c12.3 0 22.2 9.3 22.2 21.6s-9.9 21.6-22.2 21.6h-13.3V71.9h13.3Zm-5.3 6.6v29.9h4.8c8.7 0 14.7-6.7 14.7-15s-6-15-14.7-15h-4.8v.1Zm43.7-6.6V115h-8V71.9h8Zm21.4 37c4.4 0 7.5-2 7.5-5.5 0-2.8-1.8-4-4.6-5.4l-7.2-3.4c-4.7-2.2-8.6-5-8.6-11.1 0-7.5 6.2-12.4 14.2-12.4 4.9 0 9.3 2.1 11.6 4.3v8.3c-3.3-3.3-7.6-5.7-11.9-5.7-3.6 0-6.3 1.8-6.3 5 0 2.4 1.7 3.6 4.1 4.8l6.7 3.1c6.3 2.9 9.6 5.9 9.6 11.9 0 8-6.7 13-15.2 13-5.5 0-10.3-2.1-13.2-4.3v-8.2c3.8 3 8.4 5.6 13.3 5.6Zm54.3-5.4v9.2c-3.2 2-7 3-11.2 3-12.3 0-22.2-10-22.2-22.3s9.9-22.3 22.2-22.3c4.1 0 8 1.1 11.2 3v9.2c-2.5-2.8-6.4-4.6-11-4.6-8.2 0-14.4 6.4-14.4 14.7s6.3 14.7 14.4 14.7c4.6 0 8.5-1.8 11-4.6Zm51.1-31.6h8.8l13.4 28.9 13.3-28.9h8.5l-22 44.9-22-44.9ZM465.7 115V95.6l-16.1-23.8h9l11.1 16.4 11.2-16.4h9l-16.1 23.8V115h-8.1ZM117.5 30.9v-6.2l-8.3-4.5v-6.5l-4.2-2C92.9 6 79.6 2.2 64.2.1l-1-.1-1 .1C46.9 2.2 33.5 6 21.5 11.8l-4.2 2v6.5L9 24.7v6.2l-9 4.8.7 5.1C3.1 58 9.4 73.6 19.4 87.1c10.1 13.7 23.7 24.9 40.5 33.3l3.3 1.7 3.3-1.7c16.8-8.4 30.4-19.6 40.5-33.3 10-13.5 16.3-29.1 18.7-46.3l.7-5.1-8.9-4.8Zm.9 8.9c-.8 5.7-3.5 24.5-17.3 42.9-14 19-32.3 28.2-37.9 31-5.5-2.8-23.9-12-37.9-31C11.6 64.4 8.9 45.6 8.1 39.8l8.3-4.5v-6.2l8.3-4.5v-6.2c11.4-5.5 24-9 38.5-11 14.5 1.9 27.1 5.5 38.5 11v6.2l8.3 4.5v6.2l8.4 4.5Z"/><path d="m50.9 22.4.4 50.5-.4.2c-5.3-13.5-8.5-30.3-9.5-47.2-2.6 1.2-5.4 2.6-8.3 4.4 1.2 15.3 3.8 28.7 8.5 41.5l-2.7 1.5c-7.1-9.9-11.7-21.9-14.8-36.2-2.2 2-4.3 4.2-6.5 6.6 4.1 17.1 10.7 30.1 20.2 40.6l7.3-4.4c3.6 7.5 8.6 14.9 14.2 20.8V20.9c-2.8.3-5.6.8-8.4 1.5Zm47.2 26.1c3-3.3 3.6-5.7 3.6-8.6 0-4.1-3.4-7.8-8.4-11-3-1.9-7.6-4.2-14.3-6.1-3.8-1-7.9-1.7-12-1.8v79.9c16.8-8.6 36.7-32.3 36.8-44.4.2-3.7-1.7-6.1-5.7-8Zm-22.7-18c4.1 0 17.5 4.2 17.5 9.6 0 1.9-1.7 4.7-7 7.5l-10.5 5.6V30.5Zm10.4 44.3c-2.4 2.7-6.2 6.9-10.4 10.1V62s15.2-8.5 15.7-8.9c4.5 1.2 4.3 4.5 4.3 4.8 0 4.2-4.3 10.7-9.6 16.9Z"/></g></svg>